<?xml version="1.0" encoding="UTF-8"?>
<!DOCTYPE svg PUBLIC "-//W3C//DTD SVG 1.1//EN" "http://www.w3.org/Graphics/SVG/1.1/DTD/svg11.dtd">
<!-- Creator: CorelDRAW X6 -->
<svg xmlns="http://www.w3.org/2000/svg" xml:space="preserve" width="210mm" height="297mm" version="1.1" style="shape-rendering:geometricPrecision; text-rendering:geometricPrecision; image-rendering:optimizeQuality; fill-rule:evenodd; clip-rule:evenodd"
viewBox="0 0 21000 29700"
 xmlns:xlink="http://www.w3.org/1999/xlink">
 <defs>
  <style type="text/css">
   <![CDATA[
    .fil0 {fill:black}
    .fil1 {fill:#F00709}
    .fil2 {fill:#FCFBFC}
   ]]>
  </style>
 </defs>
 <g id="Layer_x0020_1">
  <metadata id="CorelCorpID_0Corel-Layer"/>
  <g id="_1082340560">
   <path class="fil0" d="M9642 16746l-249 205 5 381c396,-55 1041,-518 1346,-743 353,-261 730,-686 1030,-1009 380,-410 694,-616 1081,-958 717,-632 1322,-35 2256,454 198,104 1729,245 1047,1825 -156,363 -517,1114 -702,1344 -391,483 -999,300 -1055,-460 1013,-128 904,197 969,-375 -191,-92 -838,-41 -1064,26 -632,189 -904,602 -1461,1084 -390,338 -625,147 -545,707l556 -147c485,1298 -39,1150 12,1804 468,84 403,-91 619,-332 201,69 693,359 974,525 1158,686 1709,1083 1788,3097 36,924 -560,1672 -905,2281 -272,481 -493,1201 -741,1646 -189,340 -190,432 -45,740 441,407 747,-1424 1084,-2091 293,-581 1022,-1353 1093,-2237 42,-522 -129,-1505 -300,-1928 -394,-975 -395,-600 -164,-1663 101,-465 163,-3565 302,-3937 462,-1238 201,-828 -520,-2260 -170,-337 -255,-381 -442,-660 -401,-599 -495,-753 -1003,-1208 -360,-322 -211,-194 -465,-641 -149,-263 -330,-373 -303,-773 25,-376 155,-445 172,-949 54,-1646 418,-1223 1565,-1478 572,-127 1304,-260 1540,-664 575,-984 -334,-1614 -1363,-1723 -656,-69 -807,-227 -1507,-137 0,0 -69,-144 -173,-605 -186,-848 -379,-1275 -446,-1397 -591,-1240 -2117,-1357 -2882,118 -260,502 -455,1300 -618,1842 -361,1201 -528,-54 -2863,2069 -447,406 -752,852 -1241,1220 -925,696 -2176,1116 -2851,2078 -1523,2171 182,2291 -170,3564 -191,692 55,1225 398,1803 453,764 1176,1292 1590,2061 464,862 958,1430 1353,2384 254,613 382,1176 669,1795 433,932 420,1854 -441,2485 -22,14 -93,54 -114,65 -16,9 -46,26 -60,33 -14,8 -42,20 -61,33 46,223 238,529 354,745 762,-81 1207,-2163 1083,-2670 -45,-186 -1157,-2996 -1348,-3332 -168,-294 -329,-451 -482,-705 -161,-267 -298,-514 -437,-755 -283,-492 -615,-910 -956,-1337 -210,-264 -387,-389 -571,-622 -194,-247 -209,-490 -369,-815 -464,-940 102,-1267 -235,-1973 -303,-634 -610,-977 -285,-1826 448,-1172 1322,-1648 2433,-2239 653,-347 845,-582 1352,-1023 1088,-944 1991,-2186 3637,-2188 1001,-1 2590,-297 3791,-337 -22,315 607,1136 899,1155 649,41 575,-55 364,-138 -386,-169 -993,-577 -945,-1055 346,-90 607,-45 1212,17 782,136 1204,448 848,1061 -241,416 -504,456 -1042,575 -826,184 -2699,799 -3433,792 -347,-3 -1057,-501 -1571,-611 -1846,-394 -2659,1541 -3819,2541 -239,206 -337,319 -558,544 -181,184 -429,319 -358,616 154,61 -216,138 236,23 318,-81 418,-396 658,-612 587,-530 1089,-1018 1593,-1636 251,-308 487,-644 767,-849 711,-518 1764,-304 2400,146 608,429 1416,1002 1628,1764 -499,-38 -450,-256 -921,-156 -307,65 -581,237 -793,393 -925,682 -1706,1514 -2619,2137 -369,251 -1256,439 -1275,1030 424,-27 658,-175 976,-394 314,-217 649,-420 920,-610 1589,-1113 2264,-2596 3639,-1976 884,399 884,1355 788,2254 -1309,274 -728,-174 -2279,1192 -305,269 -546,610 -899,888 -269,212 -746,611 -1077,692zm3527 2074c126,-281 410,-545 741,-657 316,179 1177,1468 1995,45 158,157 213,-233 83,376 -263,1234 13,1293 -277,2714 -411,-13 -1251,-679 -1683,-896 -935,-468 -102,-41 -859,-1583zm2348 -4009c-233,-45 -815,-332 -962,-460 -310,-268 -214,-698 -266,-1119 396,17 1195,1128 1228,1579zm-2984 -5082c210,-88 391,-71 648,-144 116,-33 158,-67 249,-76 18,-2 46,-2 62,-2l124 28c10,-21 42,14 62,24 79,294 -105,921 -154,1282 -201,-112 -33,5 -175,-119 -87,-76 -24,-23 -125,-138 -127,-143 -76,-111 -251,-259 -226,-191 -396,-224 -439,-597zm-2071 -2919c318,-1130 631,-2616 1517,-2844 344,-89 672,8 899,175 504,371 923,2241 949,2398 -421,62 -3122,344 -3364,271z"/>
   <path class="fil1" d="M15220 1972c-637,1114 -555,2118 -421,2291 1131,1448 7208,-324 2542,-1530 469,-1506 -681,-3282 -2122,-760z"/>
   <path class="fil2" d="M10462 6811c243,73 2530,-159 2952,-221 -145,-775 -1102,-638 -492,-1693 34,-319 460,-383 -44,-755 -227,-167 -555,-264 -899,-175 -886,228 -1199,1714 -1517,2844z"/>
   <path class="fil2" d="M13169 18820c757,1542 -76,1115 859,1583 432,216 1273,883 1683,896 291,-1421 14,-1481 277,-2714 130,-609 75,-219 -83,-376 -818,1422 -1679,134 -1995,-45 -331,112 -615,376 -741,657z"/>
   <path class="fil2" d="M12533 9730c43,373 213,406 439,597 175,148 124,116 251,259 101,114 38,61 125,138 142,124 -27,7 175,119 49,-361 233,-988 154,-1282 -20,-10 -52,-44 -62,-24l-124 -28c-16,0 -44,0 -62,2 -91,9 -132,43 -249,76 -256,73 -438,55 -648,144z"/>
   <path class="fil2" d="M15517 14812c-33,-450 -832,-1562 -1228,-1579 52,420 -44,851 266,1119 147,128 729,415 962,460z"/>
  </g>
 </g>
</svg>
